<?xml version="1.0" encoding="utf-8"?>
<svg version="1.1" id="svg1" viewBox="0 0 406 420" xmlns="http://www.w3.org/2000/svg">
  <g transform="matrix(1, 0, 0, 1, -246.586696, 0.000667)">
    <path id="path1" d="m 0,0 c 7.793,5.222 16.017,10.537 24.671,15.938 7.463,4.661 15.256,9.38 23.394,14.156 C -1.314,26.489 -60.749,15.78 -124.802,-9.201 c -1.336,-0.509 -2.672,-1.041 -4.008,-1.572 v -84.415 c -16.914,-25.261 -15.348,-56.605 -15.348,-56.605 0,0 2.212,12.482 16.512,34.245 5.71,8.698 13.359,18.89 23.587,30.354 C -82.619,-63.134 -49.882,-33.434 0,0" style="fill:#4d4d4d;fill-opacity:1;fill-rule:nonzero;stroke:none" transform="matrix(1.3333333,0,0,-1.3333333,438.84827,189.28973)" clip-path="url(#clipPath2)"/>
    <path id="path3" d="m 0,0 h -211.429 c -21.346,0 -38.649,-17.302 -38.649,-38.656 v -107.169 c 117.95,62.48 249.13,51.577 288.734,46.363 v 60.806 C 38.656,-17.302 21.347,0 0,0" style="fill:#2f76b2;fill-opacity:1;fill-rule:nonzero;stroke:none" transform="matrix(1.3333333,0,0,-1.3333333,600.53907,-6.6666667e-4)" clip-path="url(#clipPath4)"/>
    <path id="path5" d="m 0,0 c -1.839,-1.58 -3.9,-3.498 -6.177,-5.803 -4.331,-4.374 -9.409,-10.149 -15.076,-17.705 C -38.434,-46.42 -61,-85.744 -84.286,-152.231 c -0.362,-1.037 -0.726,-2.08 -1.089,-3.128 -2.178,-6.296 -4.364,-12.832 -6.546,-19.618 -0.364,-1.13 -0.728,-2.268 -1.092,-3.413 -2.722,-8.525 -5.437,-17.439 -8.152,-26.755 0,0 11.602,17.999 27.449,26.755 H 31.646 c 21.346,0 38.656,17.303 38.656,38.656 V -4.748 C 58.602,-3.081 43.274,-1.415 24.923,-0.567 17.145,-0.208 8.82,0 0,0" style="fill:#4d4d4d;fill-opacity:1;fill-rule:nonzero;stroke:none" transform="matrix(1.3333333,0,0,-1.3333333,558.34507,147.1244)" clip-path="url(#clipPath6)"/>
    <path id="path7" d="m 0,0 c 0,0 -137.688,-67.352 -177.251,-204.956 h 17.956 c 0,0 28.789,128.027 159.295,204.956" style="fill:#2f76b2;fill-opacity:1;fill-rule:nonzero;stroke:none" transform="matrix(1.3333333,0,0,-1.3333333,541.62893,147.37627)" clip-path="url(#clipPath8)"/>
  </g>
</svg>
